<?xml version="1.0" standalone="no"?><!DOCTYPE svg PUBLIC "-//W3C//DTD SVG 1.1//EN" "http://www.w3.org/Graphics/SVG/1.1/DTD/svg11.dtd"><svg t="1684164794060" class="icon" viewBox="0 0 1024 1024" version="1.1" xmlns="http://www.w3.org/2000/svg" p-id="2017" xmlns:xlink="http://www.w3.org/1999/xlink" width="200" height="200"><path d="M695.19929785 601.59447881a31.71960703 31.71960703 0 1 0 31.73530957 31.73530957 31.70390362 31.70390362 0 0 0-31.78241807-31.73530957zM343.44142138 601.54737031a31.73530957 31.73530957 0 1 0 31.68820109 31.73530957 31.71960703 31.71960703 0 0 0-31.68820109-31.73530957z" fill="#10A599" p-id="2018"></path><path d="M863.86281084 249.16138261L563.68855215 75.84984776a103.40277714 103.40277714 0 0 0-103.38707462 0L160.12721885 249.16138261A103.37137207 103.37137207 0 0 0 108.43368154 338.69860948v346.6073663a103.38707461 103.38707461 0 0 0 51.69353731 89.5058209l300.17425869 173.3272374a103.32426357 103.32426357 0 0 0 103.38707461 0L863.86281084 774.90601367A103.38707461 103.38707461 0 0 0 915.55634815 685.40019278V338.69860948a103.37137207 103.37137207 0 0 0-51.69353731-89.53722687zM273.39133906 449.85855781H466.45696513a9.01339278 9.01339278 0 1 1 0 18.02678643H273.31282549a9.01339278 9.01339278 0 0 1 0-18.02678643z m438.87687627 266.94718594a85.07763809 85.07763809 0 0 1-100.57627793-66.37563281H426.94878183a85.26607207 85.26607207 0 0 1-160.59228662-53.62497862 123.4238168 123.4238168 0 0 0-15.70277548-13.45727899A16.88048349 16.88048349 0 0 1 245.04782891 562.49456768c5.35464668-11.91840645 12.29527354-28.98732393 15.15317871-43.65371602a16.91188945 16.91188945 0 0 1 16.64494189-13.67711807h185.49688887a17.00610644 17.00610644 0 0 1 16.84907842 15.26309824c1.7901167 17.16313359 7.36460156 44.5487748 24.73187168 58.86970577H560.67361894s18.96895283-43.5594999 42.60163096-57.81761983c0 0-9.90845156-76.50392256-18.27803144-121.60229413a33.88658994 33.88658994 0 0 0-38.40898887-27.33853272l-24.68476318 3.7686665c-0.48678574 0-0.91076133 0.10991953-1.38184453 0.10991865a9.13901573 9.13901573 0 0 1-8.68363506-6.20259609 9.24893526 9.24893526 0 0 1 6.72078779-11.98121748l38.51890927-8.57371552a33.5882373 33.5882373 0 0 0 18.63919425-11.2902961L598.36028047 311.50140224a16.97470049 16.97470049 0 0 1 12.97049326-6.0298664h52.77702832a16.92759199 16.92759199 0 0 1 16.95899795 16.94329541v24.85749375a16.94329453 16.94329453 0 0 1-16.95899795 16.95899795h-37.84368867a2.11987441 2.11987441 0 0 0-1.96284726 2.85790517l51.99188994 138.184425S752.32599541 514.23993828 775.80164551 542.50493398a9.42166494 9.42166494 0 0 1-0.36116368 12.34238204 8.95058174 8.95058174 0 0 1-10.06547959 1.85292773c-6.51665214-2.95212217-17.17883614-7.30179053-23.05167451-7.30179141a6.28111055 6.28111055 0 0 0-2.59095762 0.42397558v10.69358995A85.23466612 85.23466612 0 0 1 712.26821533 716.80574375z" fill="#10A599" p-id="2019"></path></svg>